<?xml version="1.0" standalone="no"?><!DOCTYPE svg PUBLIC "-//W3C//DTD SVG 1.1//EN" "http://www.w3.org/Graphics/SVG/1.1/DTD/svg11.dtd"><svg t="1532997651800" class="icon" style="" viewBox="0 0 1945 1024" version="1.1" xmlns="http://www.w3.org/2000/svg" p-id="4238" xmlns:xlink="http://www.w3.org/1999/xlink" width="379.8828125" height="200"><defs><style type="text/css"></style></defs><path d="M0 512c0-282.624 228.864-512 512.512-512h920.576C1716.224 0 1945.6 229.376 1945.6 512s-228.864 512-512.512 512H512.512C229.376 1024 0 794.624 0 512z m51.2 0c0 254.464 206.336 460.8 461.312 460.8h920.576c254.464 0.512 460.8-205.824 461.312-460.288V512c0-254.464-206.336-460.8-461.312-460.8H512.512c-254.464-0.512-460.8 205.824-461.312 460.288v0.512z" fill="#ffffff" p-id="4239"></path><path d="M509.952 325.632h36.864V527.36c-1.024 68.608-11.264 122.88-30.208 162.816-18.432 37.888-48.64 67.584-90.112 89.088l-23.552-36.864c39.424-20.48 67.072-47.104 82.944-79.872 14.848-34.304 22.528-79.36 24.064-135.168V325.632z m121.856-86.016v386.048h-39.424V280.576h-126.976v344.576H424.96V239.616h206.848z m-59.904 404.48c34.304 33.28 63.488 66.56 86.528 99.328l-31.744 31.232c-19.456-31.744-47.104-66.56-82.944-103.424l28.16-27.136z m189.952-425.472c-6.144 29.696-13.312 57.856-22.016 83.968h200.704c0 209.92-3.072 341.504-9.728 393.728-6.144 50.176-33.28 75.776-80.896 75.776-16.896 0-45.568-0.512-86.016-2.048l-10.24-39.936c46.08 1.536 75.776 2.56 89.6 2.56 25.6 0 40.96-15.872 46.08-48.128 4.608-33.28 7.168-146.432 8.704-338.944h-175.104c-17.408 37.888-37.888 71.168-61.44 100.864l-27.136-34.816c41.984-54.272 70.144-120.32 84.992-198.656l42.496 5.632z m54.272 266.752c19.456 45.568 38.912 98.816 58.368 160.256l-36.352 18.432-13.312-44.032c-45.056 10.24-98.304 18.432-159.744 25.088l-7.168-37.888c23.552-18.944 53.248-87.552 88.064-206.336l39.936 12.8c-26.112 79.872-52.224 143.36-77.312 189.952 38.912-5.12 73.728-11.776 104.96-18.944-9.216-27.648-19.456-55.296-30.72-82.432l33.28-16.896zM1316.864 324.608h43.52v129.024c-1.024 32.256-5.12 63.488-12.288 92.672h228.352v43.008h-243.2c-5.632 13.312-10.24 22.528-13.312 28.16 89.088 39.936 170.496 82.944 243.2 129.024l-30.208 33.28c-77.312-49.152-155.648-92.16-235.52-129.024l-9.728 12.288c-45.056 48.64-118.272 86.528-219.136 113.664l-25.088-39.424c101.376-26.112 172.544-61.44 212.992-104.96 11.264-13.824 20.48-28.16 27.648-43.008h-243.712v-43.008h261.632c8.704-28.16 13.312-59.392 14.848-92.672V324.608zM1063.424 251.392h467.968v27.648c-8.704 35.328-20.48 71.68-36.352 109.568l-41.984-11.776c12.288-24.064 23.04-52.224 31.744-83.968h-421.888V251.392z m27.136 159.232c47.104 19.456 90.112 41.984 128.512 68.096l-22.528 35.84c-41.984-31.744-84.48-55.808-126.976-72.704l20.992-31.232z m56.32-86.016c46.08 18.944 88.576 41.984 126.464 68.608l-22.528 34.816c-41.984-31.744-83.968-56.32-124.928-72.704l20.992-30.72z" fill="#ffffff" p-id="4240"></path></svg>