<?xml version="1.0" standalone="no"?><!DOCTYPE svg PUBLIC "-//W3C//DTD SVG 1.1//EN" "http://www.w3.org/Graphics/SVG/1.1/DTD/svg11.dtd"><svg t="1533033442780" class="icon" style="" viewBox="0 0 1024 1024" version="1.1" xmlns="http://www.w3.org/2000/svg" p-id="2350" xmlns:xlink="http://www.w3.org/1999/xlink" width="200" height="200"><defs><style type="text/css"></style></defs><path d="M864.599082 440.305121c-18.33867 0-31.874965 14.869662-31.874965 33.190937l0 405.987524c0 43.644009-33.79878 80.754209-77.432557 80.754209L162.240593 960.237791c-43.627636 0-94.392834-37.110199-94.392834-80.754209L67.847759 285.382703c0-43.681872 50.764174-90.25356 94.392834-90.25356l338.991668 0c18.334577 0 33.151028-13.547551 33.151028-31.882128 0-18.337647-14.81645-31.881105-33.151028-31.881105L162.240593 131.36591c-87.174432 0-158.136623 66.6377-158.136623 154.016793l0 594.099856c0 87.360673 70.957075 144.517441 158.136623 144.517441l593.056084 0c87.205131 0 141.175323-57.155744 141.175323-144.517441L896.472 473.496058C896.472 455.174783 882.929566 440.305121 864.599082 440.305121L864.599082 440.305121zM995.252771 80.245625l-48.551786-48.624441c-36.945447-37.012985-101.865016-37.012985-138.805346 0L716.147028 139.500171 227.194954 607.66378l0 11.428284-0.364297 1.954515-61.504796 208.532407 45.161572 40.311101 197.286272-69.580728 2.490727 0.525979 9.680477 0 467.557812-489.63155 107.751073-88.00638C1033.50805 184.879708 1033.50805 118.593002 995.252771 80.245625L995.252771 80.245625zM252.189208 783.7758l28.724205-91.494831 57.391105 57.468876L252.189208 783.7758 252.189208 783.7758zM396.661623 715.533556l-84.46574-84.581374 437.121616-434.951183 81.760119 81.893148L396.661623 715.533556 396.661623 715.533556zM949.00854 172.918281l-65.139579 65.186651-94.836949-94.982258 65.109903-65.178465c6.15928-6.152117 14.349823-9.523911 23.154349-9.523911 8.78099 0 16.986883 3.371794 23.125697 9.523911l48.516993 48.610114C961.736423 139.353838 961.736423 160.149467 949.00854 172.918281L949.00854 172.918281zM949.00854 172.918281" p-id="2351"></path></svg>