<?xml version="1.0" standalone="no"?><!DOCTYPE svg PUBLIC "-//W3C//DTD SVG 1.1//EN" "http://www.w3.org/Graphics/SVG/1.1/DTD/svg11.dtd"><svg t="1533033301137" class="icon" style="" viewBox="0 0 5609 1024" version="1.1" xmlns="http://www.w3.org/2000/svg" p-id="2222" xmlns:xlink="http://www.w3.org/1999/xlink" width="1095.5078125" height="200"><defs><style type="text/css"></style></defs><path d="M520.645403 13.832645c-164.839024 15.177486-310.850281 110.276923-393.461913 256.09606-28.625891 50.33546-49.566979 112.966604-59.365104 177.13471-4.418762 28.818011-4.418762 104.897561 0 133.715572 10.758724 69.931707 33.044653 133.523452 66.665667 189.430394 84.340713 140.631895 226.125328 229.39137 390.003752 244.184615 31.507692 2.689681 4530.38349 2.689681 4560.930581-0.19212 146.395497-13.448405 273.578987-84.532833 360.993622-201.533959 65.128705-86.838274 98.749719-188.661914 98.749718-298.746716 0-110.469043-33.428893-211.332083-99.326079-299.515197C5359.189493 98.365478 5231.429644 27.088931 5085.418386 13.640525c-27.665291-2.689681-4537.107692-2.497561-4564.772983 0.19212zM5080.615385 34.581614c116.232645 9.606004 220.553846 57.828143 302.589118 140.055534 40.153096 40.153096 67.626266 78.961351 93.178236 131.218011 32.084053 65.128705 47.069418 131.986492 47.069419 208.066042 0 76.27167-14.793246 141.400375-46.877299 207.489681-25.35985 52.25666-53.025141 91.449156-93.370356 131.602251-83.572233 83.572233-188.277674 131.602251-306.2394 140.439775-18.635647 1.344841-730.824765 1.729081-2292.184615 1.344841l-2265.095685-0.768481-24.015009-4.034521c-106.050281-18.251407-190.775235-60.133583-263.972983-131.218012-78.769231-76.27167-126.607129-170.602627-142.553096-281.455909-6.916323-47.645779-4.034522-116.424765 7.108443-167.144466 39.384615-180.20863 185.587992-326.412008 365.796622-365.796623 18.635647-4.034522 55.138462-9.413884 72.045029-10.374484 28.241651-1.729081 4525.388368-1.15272 4546.521576 0.576361z" fill="" p-id="2223"></path><path d="M622.469043 342.357974c-3.842402 15.561726-14.985366 48.606379-23.054409 68.202626l-8.261163 19.788368h-68.971107l-12.295685-6.916323c-6.724203-3.842402-12.487805-6.532083-12.487805-6.147842-0.76848 1.536961-1.15272 137.173734-0.38424 138.326454 0.38424 0.76848 6.532083-0.76848 13.640525-3.073921 11.911445-4.034522 12.872045-4.803002 13.448406-10.374484 0.57636-5.763602 1.15272-6.147842 8.453283-6.147843h7.876923l-1.34484 14.793246c-4.226642 50.91182-23.630769 84.532833-64.936586 112.198124-16.138086 10.758724-46.877298 26.70469-51.29606 26.70469-2.497561 0-2.689681 3.842402-0.19212 7.684803 4.226642 6.532083 65.897186-19.596248 90.872796-38.616135 16.714447-12.487805 26.896811-25.35985 36.118574-44.956097 8.837523-18.827767 12.487805-32.660413 15.561726-58.212383l2.305441-19.596248H589.80863v63.975985c0 88.759475-3.266041 84.340713 61.670544 83.572233l41.497937-0.57636 8.069043-5.379362c4.418762-2.881801 9.606004-8.069043 11.719324-11.335085l3.650282-6.147842-7.492683-6.916323c-4.803002-4.418762-7.684803-9.029644-8.453283-13.448405-1.344841-7.108443-4.995122-39.768856-4.995122-43.803377 0-1.344841-2.305441-2.305441-5.379362-2.305441h-5.571483l-1.34484 28.241651c-1.729081 39.192495-0.57636 37.847655-34.197373 38.616135-24.207129 0.38424-26.12833 0.19212-29.586492-3.650281-3.458161-3.842402-3.650281-7.876923-4.226642-62.439025l-0.57636-58.404503H639.75985v8.453284c0 4.803002 0.76848 9.029644 1.536961 9.606003 0.76848 0.38424 7.108443-1.536961 13.832645-4.610881l12.487805-5.571483-0.768481-47.837898-0.57636-47.837899 6.916323-4.226642c3.842402-2.497561 6.916323-5.379362 6.916323-6.532082 0-2.497561-25.16773-22.478049-28.049531-22.478049-0.9606 0-4.803002 3.458161-8.453284 7.684803l-6.724202 7.876923-14.985366-0.57636-14.985366-0.57636 20.748968-32.084053c19.019887-29.394371 21.325328-32.276173 28.818011-35.157974 4.610882-1.729081 8.261163-3.842402 8.261164-4.803001 0-1.536961-35.926454-23.054409-38.616135-23.054409-0.76848 0-2.497561 3.650281-3.650282 8.069043z m17.290807 140.824015V522.566604h-115.272045v-78.769231h115.272045v39.384616zM1279.5197 342.357974c-4.803002 18.251407-23.246529 71.084428-31.699813 90.872795-12.679925 29.778612-33.813133 68.971107-52.44878 96.828518-14.601126 21.901689-15.561726 24.015009-12.487805 26.32045 1.921201 1.344841 4.034522 2.689681 4.610882 2.689681 3.842402 0.19212 37.271295-39.576735 55.330581-66.089305l11.719325-17.290807v111.429643c0 61.478424 0.57636 112.006004 1.152721 112.582364 0.57636 0.57636 6.916323-1.536961 14.409005-4.995122l13.256285-5.955722V468.965103l5.763603-4.418762c3.266041-2.305441 5.763602-4.803002 5.763602-5.571482 0-0.9606-4.034522-3.842402-9.029644-6.724202-5.187242-2.881801-10.182364-6.147842-11.527204-7.108443-3.650281-2.689681 33.813133-76.46379 41.690056-82.035272 3.073921-2.305441 5.763602-4.803002 5.763602-5.763602 0-1.921201-35.157974-23.054409-38.231895-23.054409-1.15272 0-2.881801 3.650281-4.034521 8.069043zM929.861163 402.491557V468.772983h-32.468292c-32.084053 0-32.660413 0-45.532458-5.763602-7.108443-3.266041-13.256285-5.379362-13.832646-4.995122-0.38424 0.57636-0.9606 33.428893-1.15272 73.197749-0.19212 62.823265 0.19212 72.045028 2.689681 71.852908 1.536961 0 8.069043-1.921201 14.409006-4.226642l11.527204-4.226642 0.57636-9.221763 0.576361-9.029644H1037.448405v10.374484c0 5.763602 0.76848 10.950844 1.729081 11.719325 0.9606 0.57636 7.300563-0.9606 14.024765-3.458162l12.103565-4.610881 0.57636-49.95122 0.384241-50.143339 6.724202-4.995122c3.650281-2.881801 6.724203-5.763602 6.724203-6.532083 0-0.9606-5.955722-6.916323-13.448405-13.448405l-13.448406-12.103565-8.261163 7.876923-8.453283 7.684803H958.679174v-57.636022h75.88743c41.690056 0 75.88743-0.76848 75.88743-1.536961 0-2.689681-27.088931-31.123452-29.586492-31.123452-1.15272 0-6.532083 4.226642-11.719324 9.606004l-9.413884 9.606003H958.679174v-16.714446c0-16.138086 0.19212-16.906567 6.147843-23.054409 3.650281-3.842402 5.379362-6.916323 4.226642-7.876923-2.113321-2.113321-33.813133-13.832645-36.887055-13.832646-1.729081 0-2.305441 15.945966-2.305441 66.281426z m107.587242 120.075047v40.345216h-170.986867v-80.690432h170.986867v40.345216z" fill="" p-id="2224"></path><path d="M1411.506191 404.412758l1.152721 68.202627h-59.749344c-33.044653 0-59.941463 0.76848-59.941463 1.53696s3.458161 4.803002 7.492683 8.837524l7.492683 7.300563 12.295685-2.113321c6.916323-1.15272 30.354972-2.113321 52.44878-2.113321h39.960976l-1.152721 106.626642c-0.57636 62.246904-0.38424 106.626642 0.576361 106.626641s7.492683-2.113321 14.793245-4.803002l13.064165-4.803002-0.57636-101.823639-0.38424-101.82364h60.517824c47.645779 0 60.517824-0.57636 60.517823-2.497561 0-1.344841-7.108443-9.413884-15.945966-18.251407l-15.753846-15.753846-12.872045 11.527204-12.679925 11.527205H1438.979362v-105.281802l6.724203-4.995121c3.842402-2.881801 6.147842-6.147842 5.571482-7.300563-1.536961-2.305441-35.542214-18.827767-39.000375-18.827768-1.536961 0-1.729081 18.251407-0.768481 68.202627zM509.118199 343.894934c-2.497561 1.536961-2.305441 2.881801 1.53696 9.029644 10.374484 17.482927 19.788368 37.847655 23.24653 50.52758 4.226642 14.985366 6.724203 19.212008 11.335084 19.212007 4.803002 0 17.290807-14.793246 18.635647-21.901688 2.689681-13.832645-10.182364-31.123452-36.694934-50.33546-12.679925-9.029644-13.640525-9.413884-18.059287-6.532083zM1779.992495 361.377861c-29.778612 61.478424-87.414634 128.14409-152.735459 176.942589-7.300563 5.571482-13.448405 11.142964-13.448406 12.487805 0 7.300563 7.300563 4.034522 38.616135-16.906566 52.25666-34.965854 101.24728-83.187992 141.016136-139.094935 9.798124-13.640525 12.103565-15.753846 21.517448-19.404127l10.566604-4.034522-16.138086-13.256285c-8.837523-7.492683-16.906567-14.024765-17.867167-14.601126-1.15272-0.76848-6.147842 6.916323-11.527205 17.867167zM381.166229 358.11182c-0.9606 3.842402 1.536961 7.108443 16.522326 21.517448 10.182364 9.798124 21.133208 22.670169 26.128331 30.739212 4.803002 7.684803 9.990244 14.409006 11.719324 14.985366 8.645403 3.266041 17.098687-11.719325 15.369606-27.08893-1.536961-14.216886-11.719325-22.478049-45.148218-36.502815-10.950844-4.418762-20.748968-8.261163-21.709568-8.261163s-2.113321 2.113321-2.881801 4.610882zM2188.055535 364.451782c0 0.76848 0 65.897186 0.19212 144.666417 0.19212 132.754972 0.57636 143.705816 3.650281 150.814259 4.226642 9.413884 9.221764 14.024765 18.827768 17.482927 11.527205 4.034522 149.853659 3.842402 163.686304-0.384241 10.950844-3.266041 27.088931-16.138086 27.08893-21.709568 0-1.729081-2.689681-4.803002-5.955722-6.724203-8.645403-5.187242-12.679925-16.138086-14.985366-41.497936-1.15272-12.103565-2.113321-23.246529-2.113321-24.591369 0-1.344841-2.497561-2.305441-5.763602-2.305441-6.916323 0-7.108443 0.38424-8.453283 32.660412-0.76848 13.256285-2.113321 27.281051-3.073922 31.123453-3.650281 13.064165-3.650281 13.064165-69.739587 13.064165-64.744465 0-70.700188-0.76848-74.350469-10.566604-1.15272-2.881801-1.921201-30.162852-1.921201-65.512946V520.645403h115.272045v11.335085c0 6.339962 0.76848 11.911445 1.729081 12.487805 0.9606 0.57636 7.108443-0.9606 13.832645-3.458162l12.295685-4.610881-0.76848-68.971107-0.76848-69.163227 7.108442-5.571483c3.842402-3.073921 6.916323-6.532083 6.916323-7.684803 0-2.113321-24.207129-21.901689-26.89681-21.901688-0.57636 0-4.034522 3.458161-7.492683 7.684803l-6.147843 7.684803h-117.193246l-8.069043-5.571482c-10.950844-7.300563-16.714447-10.182364-16.906566-8.453284zM2259.332083 449.560976v57.636022h-44.187618v-115.272045h44.187618v57.636023z m71.084427 0v57.636022h-42.266416v-115.272045h42.266416v57.636023zM2052.034522 504.315197c0 94.330957 0.57636 123.917448 2.30544 123.725328 1.344841 0 7.492683-1.921201 13.832646-4.418761l11.527204-4.418762 0.576361-20.364728 0.57636-20.556848h43.995497v16.330206c0 11.335084 0.76848 16.714447 2.497561 17.290807 1.15272 0.57636 7.492683-0.9606 13.832645-3.458161l11.527205-4.418762-0.76848-95.291557-0.576361-95.099437 6.916323-5.379363c7.876923-5.955722 7.876923-6.147842-6.147842-19.212007l-10.182364-9.221764-8.069043 7.876923-8.261164 8.069044h-46.300938l-11.911444-7.684803c-6.532083-4.226642-12.679925-7.684803-13.640526-7.684803s-1.729081 52.25666-1.72908 123.917448z m72.813508-17.290807V564.833021h-44.187617v-155.617261h44.187617v77.80863zM1838.396998 452.058537c-11.527205 24.015009-29.778612 53.793621-46.300938 76.079549-27.665291 36.887054-89.335835 93.370356-111.045403 101.4394-4.803002 1.729081-9.029644 3.458161-9.221764 3.650281-0.38424 0.19212 4.034522 8.645403 9.990244 18.443528l10.758724 18.059287 11.142965-5.379362c12.872045-6.339962 42.842777-13.064165 88.951594-19.596248 41.882176-6.147842 109.124203-13.448405 110.469043-12.103565 0.57636 0.57636 4.418762 9.029644 8.645404 19.019888 10.182364 24.207129 11.911445 27.281051 15.561726 28.049531 4.803002 0.9606 17.482927-12.872045 19.596248-21.517449 1.536961-6.339962-0.57636-22.670169-2.689682-21.325328-0.76848 0.57636-1.921201-1.729081-2.689681-4.995122-0.76848-3.842402-6.147842-11.142964-14.985365-20.364728-14.985366-15.369606-73.005629-64.552345-77.424391-65.512946-6.724203-1.536961-3.650281 5.187242 10.566604 23.054409 22.478049 27.857411 37.847655 51.29606 34.773734 53.217261-1.344841 0.76848-14.985366 2.113321-30.547092 2.881801-15.561726 0.57636-55.714822 2.497561-89.335835 4.226642-33.428893 1.536961-61.862664 2.689681-63.015384 2.305441-0.9606-0.38424 4.418762-5.763602 12.103564-12.103565 35.734334-29.202251 87.990994-84.340713 126.41501-133.331332 10.758724-13.640525 15.945966-18.635647 22.478048-21.517448 4.418762-1.921201 8.261163-3.842402 8.261164-4.226642 0-0.76848-28.049531-22.670169-31.891933-24.97561-1.15272-0.57636-5.379362 5.955722-10.566604 16.522327zM413.634522 457.822139c-2.113321 2.305441-5.379362 6.532083-7.300563 9.413884l-3.266042 5.379362h-31.507692c-17.290807 0-31.507692 0.76848-31.507692 1.53696s3.458161 4.803002 7.492683 8.837524l7.684803 7.492683 10.950844-2.305441c6.147842-1.15272 16.906567-2.113321 24.207129-2.113321h13.064166v77.04015c0 76.07955 0 77.23227-4.226642 83.956473l-4.226642 6.916322 11.527205 10.182364c6.147842 5.571482 11.911445 10.182364 12.487805 10.182364 0.57636 0 6.724203-7.492683 13.640525-16.906566 6.916323-9.221764 20.941088-26.70469 31.507692-38.808255 32.852533-38.231895 34.389493-40.345216 32.276173-43.803377-1.15272-1.729081-2.881801-3.266041-4.034522-3.650282-0.9606-0.38424-15.177486 11.335084-31.507692 26.12833l-29.586492 26.896811-0.57636-66.665666-0.38424-66.665666 6.724203-5.379362c3.650281-3.073921 6.724203-6.724203 6.724202-7.876923 0-1.344841-4.610882-6.147842-9.990244-10.758725-5.571482-4.610882-11.527205-9.413884-13.256285-10.950844-2.497561-2.113321-3.650281-1.921201-6.916322 1.921201zM1058.581614 607.483677c-1.729081 3.842402-0.38424 6.916323 10.374484 23.246529 6.916323 10.374484 14.793246 25.16773 17.482926 32.660413 11.142964 30.354972 14.216886 33.044653 24.97561 21.709569 8.837523-9.413884 10.182364-17.482927 4.995122-29.010132-4.803002-10.758724-25.93621-32.276173-43.995497-44.763977l-11.911445-8.261163-1.9212 4.418761zM819.77636 625.350844c-6.532083 12.872045-12.295685 21.133208-19.212007 27.473171-22.093809 20.748968-22.862289 21.325328-22.093809 25.74409 0.76848 5.571482 12.103565 13.064165 19.788368 13.064165 8.837523 0 21.517448-9.798124 25.74409-19.788368 4.610882-10.950844 11.527205-38.808255 13.064165-53.21726 1.15272-11.142964 0.9606-11.527205-3.458161-11.527205-3.842402 0-6.147842 2.881801-13.832646 18.251407zM971.55122 612.478799c-2.689681 2.881801-2.689681 3.650281 0 7.108443 6.724203 9.029644 16.138086 30.547092 19.980487 45.916698 6.147842 24.207129 12.103565 27.281051 23.82289 12.103565 7.300563-9.798124 7.876923-16.522326 2.11332-27.665291-4.803002-9.606004-25.93621-30.739212-37.271294-37.463415-5.379362-3.266041-5.763602-3.266041-8.645403 0zM2474.506567 612.478799c-14.409006 7.108443-17.675047 27.857411-6.147843 39.384616 7.300563 7.300563 23.054409 9.413884 32.660413 4.418761 11.527205-5.955722 16.138086-25.16773 8.453283-35.542214-4.418762-6.339962-14.985366-11.719325-22.478049-11.719324-3.073921 0-8.837523 1.536961-12.487804 3.458161zM2691.602251 612.478799c-14.409006 7.108443-17.675047 27.857411-6.147842 39.384616 7.300563 7.300563 23.054409 9.413884 32.660413 4.418761 11.527205-5.955722 16.138086-25.16773 8.453283-35.542214-4.418762-6.339962-14.985366-11.719325-22.478049-11.719324-3.073921 0-8.837523 1.536961-12.487805 3.458161zM2906.776735 612.478799c-14.409006 7.108443-17.675047 27.857411-6.147842 39.384616 7.300563 7.300563 23.054409 9.413884 32.660413 4.418761 11.527205-5.955722 16.138086-25.16773 8.453283-35.542214-4.418762-6.339962-14.985366-11.719325-22.478049-11.719324-3.073921 0-8.837523 1.536961-12.487805 3.458161zM3123.87242 612.478799c-14.409006 7.108443-17.675047 27.857411-6.147842 39.384616 7.300563 7.300563 23.054409 9.413884 32.660413 4.418761 11.527205-5.955722 16.138086-25.16773 8.453283-35.542214-4.418762-6.339962-14.985366-11.719325-22.478049-11.719324-3.073921 0-8.837523 1.536961-12.487805 3.458161zM886.057786 614.20788c-1.344841 2.305441 0.38424 7.876923 6.532083 20.556848 4.995122 10.182364 9.798124 24.207129 11.911444 33.621013 2.497561 12.295685 4.226642 16.714447 7.492683 19.019888 4.226642 2.689681 4.803002 2.305441 11.911445-4.803002 8.837523-8.645403 11.142964-17.290807 8.069043-29.010132-1.344841-4.418762-4.610882-10.758724-7.492683-14.024765-5.763602-6.916323-32.276173-28.625891-34.965854-28.625891-0.9606 0-2.497561 1.344841-3.458161 3.266041z" fill="" p-id="2225"></path></svg>