<?xml version="1.0" standalone="no"?><!DOCTYPE svg PUBLIC "-//W3C//DTD SVG 1.1//EN" "http://www.w3.org/Graphics/SVG/1.1/DTD/svg11.dtd"><svg t="1533130208678" class="icon" style="" viewBox="0 0 1024 1024" version="1.1" xmlns="http://www.w3.org/2000/svg" p-id="6659" xmlns:xlink="http://www.w3.org/1999/xlink" width="200" height="200"><defs><style type="text/css"></style></defs><path d="M814.53714313 939.61142844H209.46285687a125.21142844 125.21142844 0 0 1-125.07428531-125.07428532V209.46285687a125.21142844 125.21142844 0 0 1 125.07428531-125.07428531h605.07428626a125.21142844 125.21142844 0 0 1 125.07428531 125.07428531v605.07428626a125.21142844 125.21142844 0 0 1-125.07428531 125.07428531zM32 209.46285687v605.07428626A177.66857156 177.66857156 0 0 0 209.46285687 992h605.07428626A177.66857156 177.66857156 0 0 0 992 814.53714313V209.46285687A177.66857156 177.66857156 0 0 0 814.53714313 32H209.46285687A177.66857156 177.66857156 0 0 0 32 209.46285687z m506.19428531 276.34285782V307.31428531a26.16 26.16 0 1 0-52.38857062 0v178.49142938H307.34857156a26.16 26.16 0 1 0 0 52.38857062h178.45714313v178.49142938a26.16 26.16 0 1 0 52.38857062 0v-178.49142938h178.45714313a26.19428531 26.19428531 0 1 0 0-52.38857062h-178.45714313z" fill="#515151" p-id="6660"></path></svg>