<?xml version="1.0" standalone="no"?><!DOCTYPE svg PUBLIC "-//W3C//DTD SVG 1.1//EN" "http://www.w3.org/Graphics/SVG/1.1/DTD/svg11.dtd"><svg t="1533277053503" class="icon" style="" viewBox="0 0 1024 1024" version="1.1" xmlns="http://www.w3.org/2000/svg" p-id="4847" xmlns:xlink="http://www.w3.org/1999/xlink" width="200" height="200"><defs><style type="text/css"></style></defs><path d="M76.443 985.431c14.203 0 23.672-9.468 23.672-23.671 0-213.044 172.802-385.847 385.846-385.847 66.28 0 130.194 16.57 187.006 47.343 11.835 7.102 26.038 2.367 33.14-9.468 7.101-11.836 2.367-26.039-9.469-33.14-28.406-16.57-59.179-28.406-89.952-37.875 87.585-44.976 149.131-137.295 149.131-243.817 0-151.498-123.092-274.59-274.59-274.59s-274.59 123.092-274.59 274.59c0 108.89 61.546 201.208 153.865 246.184-177.537 54.445-307.73 220.146-307.73 414.252 0 16.57 9.468 26.04 23.671 26.04zM253.98 301.323c0-125.46 101.788-227.247 227.247-227.247s227.247 101.788 227.247 227.247S606.686 528.57 481.227 528.57 253.98 426.782 253.98 301.323z m520.774 667.538c14.203 0 23.672-9.469 23.672-23.672V805.527h139.662c14.203 0 23.672-9.468 23.672-23.671s-9.469-23.672-23.672-23.672H798.426V618.522c0-14.203-9.469-23.672-23.672-23.672s-23.671 9.47-23.671 23.672v139.662H611.42c-14.203 0-23.672 9.469-23.672 23.672s9.469 23.671 23.672 23.671h139.662V945.19c0 14.203 9.468 23.672 23.671 23.672z" p-id="4848" fill="#515151"></path></svg>