<?xml version="1.0" standalone="no"?><!DOCTYPE svg PUBLIC "-//W3C//DTD SVG 1.1//EN" "http://www.w3.org/Graphics/SVG/1.1/DTD/svg11.dtd"><svg t="1533294822735" class="icon" style="" viewBox="0 0 1024 1024" version="1.1" xmlns="http://www.w3.org/2000/svg" p-id="19169" xmlns:xlink="http://www.w3.org/1999/xlink" width="200" height="200"><defs><style type="text/css"></style></defs><path d="M128 352a32 32 0 0 0 32-32V192a32 32 0 0 1 32-32h128a32 32 0 0 0 0-64H192a96 96 0 0 0-96 96v128a32 32 0 0 0 32 32zM320 864H192a32 32 0 0 1-32-32v-64a32 32 0 0 0-64 0v64a96 96 0 0 0 96 96h128a32 32 0 0 0 0-64zM896 736a32 32 0 0 0-32 32v64a32 32 0 0 1-32 32h-64a32 32 0 0 0 0 64h64a96 96 0 0 0 96-96v-64a32 32 0 0 0-32-32zM832 96h-64a32 32 0 0 0 0 64h64a32 32 0 0 1 32 32v128a32 32 0 0 0 64 0V192a96 96 0 0 0-96-96zM768 720c0.448-82.656-62.016-173.568-151.392-215.808C650.272 474.848 672 432.16 672 384a160 160 0 0 0-320 0c0 48.192 21.76 90.912 55.456 120.224C318.208 546.592 255.936 637.6 256 720c0.16 32 32.416 48 48 48h416c16.864 0 48.352-16 48-48zM512 288a96 96 0 1 1 0 192 96 96 0 0 1 0-192z m-190.784 416c4.96-33.728 25.024-70.944 54.848-100.544C414.656 565.12 462.944 544 512 544c49.056 0 99.136 22.08 137.376 60.544 29.504 29.664 48.736 65.536 53.472 99.456H321.216z" fill="#515151" p-id="19170"></path></svg>