<?xml version="1.0" standalone="no"?><!DOCTYPE svg PUBLIC "-//W3C//DTD SVG 1.1//EN" "http://www.w3.org/Graphics/SVG/1.1/DTD/svg11.dtd"><svg t="1533208400771" class="icon" style="" viewBox="0 0 1024 1024" version="1.1" xmlns="http://www.w3.org/2000/svg" p-id="16045" xmlns:xlink="http://www.w3.org/1999/xlink" width="200" height="200"><defs><style type="text/css"></style></defs><path d="M704 143.36h-358.4c-56.32 0-102.4 46.08-102.4 102.4v563.2c0 56.32 46.08 102.4 102.4 102.4l179.2-179.2 179.2 179.2c56.32 0 102.4-46.08 102.4-102.4v-563.2c0-56.32-46.08-102.4-102.4-102.4z m51.2 665.6c0 28.16-23.04 51.2-51.2 51.2l-179.2-179.2-179.2 179.2c-28.16 0-51.2-23.04-51.2-51.2v-563.2c0-28.16 23.04-51.2 51.2-51.2h358.4c28.16 0 51.2 23.04 51.2 51.2v563.2z" p-id="16046" fill="#515151"></path></svg>