<?xml version="1.0" standalone="no"?><!DOCTYPE svg PUBLIC "-//W3C//DTD SVG 1.1//EN" "http://www.w3.org/Graphics/SVG/1.1/DTD/svg11.dtd"><svg t="1533130255883" class="icon" style="" viewBox="0 0 1024 1024" version="1.1" xmlns="http://www.w3.org/2000/svg" p-id="8279" xmlns:xlink="http://www.w3.org/1999/xlink" width="200" height="200"><defs><style type="text/css"></style></defs><path d="M663.079385 488.093538c70.498462-48.600615 116.736-128.393846 116.736-218.624 0-147.849846-123.707077-268.091077-275.692308-268.091077s-275.692308 120.241231-275.692308 268.091077c0 92.829538 48.876308 174.788923 122.88 222.916923C214.094769 552.211692 118.153846 685.883077 118.153846 841.137231c0 133.907692 212.164923 181.444923 393.846154 181.444923s393.846154-47.537231 393.846154-181.444923C905.846154 682.220308 805.454769 545.713231 663.079385 488.093538zM307.2 269.469538c0-104.369231 88.339692-189.321846 196.923077-189.321846s196.923077 84.952615 196.923077 189.321846c0 104.329846-88.339692 189.282462-196.923077 189.282462S307.2 373.799385 307.2 269.469538zM512 943.852308c-188.455385 0-315.076923-53.129846-315.076923-102.675692 0-167.463385 141.351385-303.655385 315.076923-303.655385s315.076923 136.192 315.076923 303.655385C827.076923 890.722462 700.455385 943.852308 512 943.852308z" p-id="8280"></path></svg>