<?xml version="1.0" standalone="no"?><!DOCTYPE svg PUBLIC "-//W3C//DTD SVG 1.1//EN" "http://www.w3.org/Graphics/SVG/1.1/DTD/svg11.dtd"><svg t="1533277131836" class="icon" style="" viewBox="0 0 1024 1024" version="1.1" xmlns="http://www.w3.org/2000/svg" p-id="5205" xmlns:xlink="http://www.w3.org/1999/xlink" width="200" height="200"><defs><style type="text/css"></style></defs><path d="M959.184809 813.95003c-0.26913 53.768601-26.139334 95.535867-71.949682 124.173091-24.448832 15.287171-51.394531 21.842471-80.169901 21.835307-196.137099-0.074701-392.277268-0.12689-588.414367 0.01842-48.426943 0.040932-88.688925-17.58347-119.942743-54.534034-21.26021-25.13547-32.239262-54.773488-34.150798-87.606267-0.649799-11.169387-0.201591-22.410406-0.201591-33.617655-0.007163-188.868555 0.048095-377.73711-0.045026-566.601573-0.022513-47.926546 17.605983-87.889723 54.067407-118.771057 26.863834-22.74605 58.558697-34.468023 93.903693-34.658357 58.386782-0.313132 116.773564-0.085958 175.164438-0.085958h124.404358c98.902544 0 197.809181-0.138146 296.711726 0.056282 47.609321 0.090051 87.072101 18.711154 117.378337 55.272861 21.790282 26.285666 33.486672 57.143465 33.523511 91.432409 0.239454 201.032596 0.725524 402.067238-0.279362 603.086531zM511.843434 138.706085H408.173306c-48.65821 0-97.316419-0.190335-145.970535 0.070608-29.450752 0.160659-55.866379 9.92607-78.251202 28.883841-30.388101 25.733081-45.077661 59.036581-45.055149 98.974176 0.078795 157.38654 0.029676 314.781266 0.033769 472.167806 0 9.343809-0.369414 18.707061 0.167823 28.0171 1.594311 27.360138 10.743692 52.058656 28.461215 73.005734 26.046213 30.791284 59.59633 45.477774 99.951433 45.444005 81.585133-0.059352 163.169243-0.011256 244.754376-0.007163V511.833201H431.378821c-0.160659-2.602268-0.396019-4.688789-0.396019-6.779403-0.026606-37.917588 0.090051-75.843362-0.134053-113.765044-0.033769-5.816472 1.508353-7.884574 7.574512-7.794523 21.689998 0.321318 43.383066 0.119727 65.073064 0.119727h8.470929c0-3.304256-0.007163-5.857405 0-8.414647 0.074701-30.048363-0.418532-60.119239 0.387833-90.14816 0.840134-31.216979 6.469342-61.564148 21.286816-89.565898 14.394848-27.199479 35.58445-45.014216 61.182454-56.762795-27.658943 0.00921-55.32198-0.016373-82.980923-0.016373z m345.075223 46.105061c-3.187599-3.848655-6.854105-6.752798-10.28832-10.124591v84.142375h-8.638751c-37.185924 0.004093-74.368778-0.205685-111.550609 0.156566-8.709359 0.081864-17.721617 0.989537-26.009374 3.472078-8.813736 2.639107-14.686491 9.746992-16.802687 18.968003-1.481747 6.469342-2.795673 13.144368-2.901073 19.748787-0.403183 25.7515-0.302899 51.510164-0.362251 77.268828-0.004093 1.384533 0.260943 2.77009 0.530073 5.368264h166.891008c-7.540743 43.491537-14.84715 85.624123-22.220071 128.167055H680.432107v373.275495c25.807782 0.007163 51.614541-0.011256 77.422324-0.004093 23.982204 0.007163 46.433542-5.454222 66.808591-18.191315 38.175461-23.86657 59.734476-58.674331 59.958581-103.475699 0.836041-167.518295 0.432859-335.047846 0.23536-502.574327-0.032746-28.577872-9.779737-54.29151-27.938306-76.197426z" p-id="5206" fill="#515151"></path></svg>