<?xml version="1.0" standalone="no"?><!DOCTYPE svg PUBLIC "-//W3C//DTD SVG 1.1//EN" "http://www.w3.org/Graphics/SVG/1.1/DTD/svg11.dtd"><svg t="1533131943417" class="icon" style="" viewBox="0 0 1024 1024" version="1.1" xmlns="http://www.w3.org/2000/svg" p-id="11362" xmlns:xlink="http://www.w3.org/1999/xlink" width="200" height="200"><defs><style type="text/css"></style></defs><path d="M576 383.649792h-384c-35.344384 0-64 28.655616-64 64v384.003072c0 35.344384 28.655616 63.993856 64 63.993856h384c35.347456 0 64-28.649472 64-63.993856V447.649792c0-35.344384-28.652544-64-64-64z m0 415.996928c0 17.677312-14.326784 32.006144-32 32.006144h-320c-17.670144 0-32-14.329856-32-32.006144V479.649792c0-17.670144 14.329856-32 32-32h320c17.673216 0 32 14.329856 32 32v319.996928zM864 831.652864h-128c-17.673216 0-32 14.319616-32 31.996928 0 17.673216 14.326784 31.996928 32 31.996928h128c17.673216 0 32-14.322688 32-31.996928 0-17.676288-14.326784-31.996928-32-31.996928z" fill="#5F5F5F" p-id="11363"></path><path d="M896 255.652864H599.868416L880.569344 62.523392c14.831616-10.205184 19.068928-31.248384 9.458688-47.007744-9.606144-15.753216-29.420544-20.258816-44.253184-10.044416 0 0-307.510272 212.320256-333.507584 227.9936L178.224128 5.470208c-14.831616-10.2144-34.646016-5.7088-44.253184 10.044416-9.609216 15.760384-5.369856 36.803584 9.462784 47.007744L424.131584 255.65184H128c-70.690816 0-128 57.305088-128 127.996928v511.996928c0 70.697984 57.309184 128 128 128h768c70.693888 0 128-57.302016 128-128V383.649792c0-70.690816-57.306112-127.996928-128-127.996928z m64 639.993856c0 35.3536-28.652544 64.003072-64 64.003072H128c-35.344384 0-64-28.649472-64-64.003072V383.649792c0-35.344384 28.655616-64.003072 64-64.003072h768c35.347456 0 64 28.659712 64 64.003072v511.996928z" fill="#5F5F5F" p-id="11364"></path><path d="M800 383.649792c-53.0176 0-96 42.976256-96 96 0 53.0176 42.9824 96.003072 96 96.003072 53.020672 0 96-42.985472 96-96.003072 0-53.023744-42.979328-96-96-96z m32 128H768v-64h64v64zM864 735.64672h-128c-17.673216 0-32 14.329856-32 32.003072 0 17.670144 14.326784 31.996928 32 31.996928h128c17.673216 0 32-14.326784 32-31.996928 0-17.673216-14.326784-32.003072-32-32.003072z" fill="#5F5F5F" p-id="11365"></path></svg>