<?xml version="1.0" standalone="no"?><!DOCTYPE svg PUBLIC "-//W3C//DTD SVG 1.1//EN" "http://www.w3.org/Graphics/SVG/1.1/DTD/svg11.dtd"><svg t="1533129377732" class="icon" style="" viewBox="0 0 1024 1024" version="1.1" xmlns="http://www.w3.org/2000/svg" p-id="3499" xmlns:xlink="http://www.w3.org/1999/xlink" width="200" height="200"><defs><style type="text/css"></style></defs><path d="M1009.850459 14.149541c-13.961066-13.961066-37.22951-18.614755-55.844265-9.307378L32.575821 363.176197c-18.614755 4.653689-32.575821 27.922133-32.575821 51.190576 0 23.268444 13.961066 41.883199 37.22951 46.536888l414.178299 116.342219 111.68853 409.52461c4.653689 23.268444 23.268444 37.22951 51.190576 37.22951 23.268444 0 41.883199-13.961066 46.536888-32.575821l358.334034-921.430373c9.307378-18.614755 4.653689-41.883199-9.307378-55.844265zM502.598385 484.172105L186.14755 400.405707l712.014379-274.567636-279.221325 702.707001-83.766397-307.143457c0-18.614755-13.961066-32.575821-32.575822-37.22951z" fill="#B5B5B5" p-id="3500"></path></svg>