<?xml version="1.0" standalone="no"?><!DOCTYPE svg PUBLIC "-//W3C//DTD SVG 1.1//EN" "http://www.w3.org/Graphics/SVG/1.1/DTD/svg11.dtd"><svg t="1533208226845" class="icon" style="" viewBox="0 0 1024 1024" version="1.1" xmlns="http://www.w3.org/2000/svg" p-id="4923" xmlns:xlink="http://www.w3.org/1999/xlink" width="200" height="200"><defs><style type="text/css"></style></defs><path d="M934.4 307.2c-25.6-44.8-57.6-89.6-102.4-128-83.2-70.4-198.4-108.8-320-108.8s-236.8 38.4-326.4 108.8c-44.8 38.4-76.8 76.8-102.4 128C64 358.4 51.2 409.6 51.2 460.8c0 76.8 25.6 153.6 76.8 217.6 44.8 57.6 102.4 102.4 179.2 134.4 0 25.6-6.4 44.8-19.2 70.4-12.8 12.8-12.8 32-6.4 44.8 6.4 12.8 25.6 25.6 38.4 25.6 108.8-6.4 192-76.8 217.6-96 115.2-6.4 224-44.8 300.8-115.2 83.2-76.8 134.4-172.8 134.4-275.2 0-57.6-12.8-108.8-38.4-160z m-409.6 499.2H512v6.4s-76.8 76.8-172.8 89.6c19.2-25.6 32-70.4 19.2-115.2l-6.4-12.8-19.2-6.4C192 716.8 102.4 595.2 102.4 460.8c0-185.6 185.6-339.2 409.6-339.2 224 0 409.6 153.6 409.6 339.2s-172.8 339.2-396.8 345.6z" p-id="4924" fill="#707070"></path></svg>