<?xml version="1.0" standalone="no"?><!DOCTYPE svg PUBLIC "-//W3C//DTD SVG 1.1//EN" "http://www.w3.org/Graphics/SVG/1.1/DTD/svg11.dtd"><svg t="1533294716789" class="icon" style="" viewBox="0 0 1024 1024" version="1.1" xmlns="http://www.w3.org/2000/svg" p-id="9366" xmlns:xlink="http://www.w3.org/1999/xlink" width="200" height="200"><defs><style type="text/css"></style></defs><path d="M910.933333 970.666667H93.866667c-21.333333 0-40.533333-17.066667-40.533334-40.533334V113.066667c0-21.333333 17.066667-40.533333 40.533334-40.533334h817.066666c21.333333 0 40.533333 17.066667 40.533334 40.533334v817.066666c0 23.466667-19.2 40.533333-40.533334 40.533334zM93.866667 83.2c-17.066667 0-29.866667 14.933333-29.866667 29.866667v817.066666c0 17.066667 12.8 29.866667 29.866667 29.866667h817.066666c14.933333 0 27.733333-12.8 27.733334-27.733333V113.066667c0-14.933333-12.8-27.733333-27.733334-27.733334H93.866667z" p-id="9367"></path><path d="M347.733333 78.933333h10.666667v887.466667h-10.666667zM644.266667 78.933333h10.666666v887.466667h-10.666666z" p-id="9368"></path><path d="M57.6 663.466667h887.466667v10.666666H57.6zM57.6 369.066667h887.466667v10.666666H57.6z" p-id="9369"></path></svg>