<?xml version="1.0" standalone="no"?><!DOCTYPE svg PUBLIC "-//W3C//DTD SVG 1.1//EN" "http://www.w3.org/Graphics/SVG/1.1/DTD/svg11.dtd"><svg t="1533296979206" class="icon" style="" viewBox="0 0 1024 1024" version="1.1" xmlns="http://www.w3.org/2000/svg" p-id="1910" xmlns:xlink="http://www.w3.org/1999/xlink" width="200" height="200"><defs><style type="text/css"></style></defs><path d="M884.363636 46.545455c51.2 0 93.090909 41.890909 93.090909 93.090909v744.727272c0 51.2-41.890909 93.090909-93.090909 93.090909H139.636364c-51.2 0-93.090909-41.890909-93.090909-93.090909V139.636364c0-51.2 41.890909-93.090909 93.090909-93.090909h744.727272z m23.272728 837.818181V139.636364c0-12.613818-10.658909-23.272727-23.272728-23.272728H139.636364c-12.613818 0-23.272727 10.658909-23.272728 23.272728v744.727272c0 12.613818 10.658909 23.272727 23.272728 23.272728h744.727272c12.613818 0 23.272727-10.658909 23.272728-23.272728z m-151.272728-407.272727a34.909091 34.909091 0 1 1 0 69.818182h-209.454545v209.454545a34.909091 34.909091 0 1 1-69.818182 0v-209.454545h-209.454545a34.909091 34.909091 0 1 1 0-69.818182h209.454545v-209.454545a34.909091 34.909091 0 1 1 69.818182 0v209.454545h209.454545z" fill="#797979" p-id="1911"></path></svg>