<?xml version="1.0" standalone="no"?><!DOCTYPE svg PUBLIC "-//W3C//DTD SVG 1.1//EN" "http://www.w3.org/Graphics/SVG/1.1/DTD/svg11.dtd"><svg t="1533130175047" class="icon" style="" viewBox="0 0 1047 1024" version="1.1" xmlns="http://www.w3.org/2000/svg" p-id="4339" xmlns:xlink="http://www.w3.org/1999/xlink" width="204.4921875" height="200"><defs><style type="text/css"></style></defs><path d="M451.232914 882.980571C202.430171 882.980571 0 684.938971 0 441.490286 0 198.070857 202.430171 0 451.232914 0c248.802743 0 451.232914 198.070857 451.232914 441.490286C902.436571 684.938971 700.035657 882.980571 451.232914 882.980571M451.232914 108.661029c-187.567543 0-340.1728 149.2992-340.1728 332.829257s152.605257 332.829257 340.1728 332.829257 340.1728-149.2992 340.1728-332.829257S638.7712 108.661029 451.232914 108.661029M978.241829 1024c-17.495771 0-34.991543-6.524343-48.3328-19.573029l-235.754057-230.663314c-26.682514-26.097371-26.682514-68.461714 0-94.588343 26.711771-26.097371 69.983086-26.097371 96.6656 0l235.754057 230.634057c26.682514 26.097371 26.682514 68.461714 0 94.588343C1013.204114 1017.475657 995.7376 1024 978.241829 1024" p-id="4340"></path></svg>